<svg width="800" height="450" viewBox="0 0 800 450" fill="none" xmlns="http://www.w3.org/2000/svg">
  <rect width="800" height="450" fill="#141414"/>
  <ellipse cx="400" cy="395" rx="310" ry="18" fill="#1a1000" opacity="0.8"/>
  <rect x="90" y="300" width="620" height="80" rx="4" fill="#222" stroke="#3a3a3a" stroke-width="1.5"/>
  <rect x="90" y="300" width="620" height="14" rx="4" fill="#2a2a2a"/>
  <rect x="150" y="268" width="62" height="36" rx="3" fill="#2a2a2a" stroke="#444" stroke-width="1"/>
  <rect x="270" y="268" width="62" height="36" rx="3" fill="#2a2a2a" stroke="#444" stroke-width="1"/>
  <rect x="390" y="268" width="62" height="36" rx="3" fill="#2a2a2a" stroke="#444" stroke-width="1"/>
  <rect x="510" y="268" width="62" height="36" rx="3" fill="#2a2a2a" stroke="#444" stroke-width="1"/>
  <!-- Tube 1 -->
  <path d="M162 268 L152 155 Q181 133 210 155 L198 268 Z" fill="#1e1e1e" stroke="#555" stroke-width="1.2"/>
  <ellipse cx="181" cy="155" rx="29" ry="11" fill="#252525" stroke="#555" stroke-width="1.2"/>
  <line x1="181" y1="172" x2="181" y2="252" stroke="#d4a94c" stroke-width="1.5" opacity="0.9"/>
  <line x1="166" y1="193" x2="196" y2="193" stroke="#d4a94c" stroke-width="1.2" opacity="0.8"/>
  <line x1="163" y1="218" x2="199" y2="218" stroke="#d4a94c" stroke-width="1.2" opacity="0.8"/>
  <ellipse cx="181" cy="160" rx="10" ry="5" fill="#d4a94c" opacity="0.5"/>
  <ellipse cx="181" cy="210" rx="24" ry="56" fill="#c97820" opacity="0.14"/>
  <!-- Tube 2 -->
  <path d="M282 268 L272 155 Q301 133 330 155 L318 268 Z" fill="#1e1e1e" stroke="#555" stroke-width="1.2"/>
  <ellipse cx="301" cy="155" rx="29" ry="11" fill="#252525" stroke="#555" stroke-width="1.2"/>
  <line x1="301" y1="172" x2="301" y2="252" stroke="#d4a94c" stroke-width="1.5" opacity="0.9"/>
  <line x1="286" y1="193" x2="316" y2="193" stroke="#d4a94c" stroke-width="1.2" opacity="0.8"/>
  <line x1="283" y1="218" x2="319" y2="218" stroke="#d4a94c" stroke-width="1.2" opacity="0.8"/>
  <ellipse cx="301" cy="160" rx="10" ry="5" fill="#d4a94c" opacity="0.5"/>
  <ellipse cx="301" cy="210" rx="24" ry="56" fill="#c97820" opacity="0.14"/>
  <!-- Tube 3 hero -->
  <path d="M402 268 L392 155 Q421 133 450 155 L438 268 Z" fill="#222" stroke="#666" stroke-width="1.4"/>
  <ellipse cx="421" cy="155" rx="29" ry="11" fill="#2a2a2a" stroke="#666" stroke-width="1.4"/>
  <line x1="421" y1="172" x2="421" y2="252" stroke="#d4a94c" stroke-width="2" opacity="1"/>
  <line x1="406" y1="193" x2="436" y2="193" stroke="#d4a94c" stroke-width="1.5" opacity="0.9"/>
  <line x1="403" y1="218" x2="439" y2="218" stroke="#d4a94c" stroke-width="1.5" opacity="0.9"/>
  <ellipse cx="421" cy="158" rx="12" ry="6" fill="#d4a94c" opacity="0.7"/>
  <ellipse cx="421" cy="210" rx="30" ry="62" fill="#c97820" opacity="0.2"/>
  <!-- Tube 4 -->
  <path d="M522 268 L512 155 Q541 133 570 155 L558 268 Z" fill="#1e1e1e" stroke="#555" stroke-width="1.2"/>
  <ellipse cx="541" cy="155" rx="29" ry="11" fill="#252525" stroke="#555" stroke-width="1.2"/>
  <line x1="541" y1="172" x2="541" y2="252" stroke="#d4a94c" stroke-width="1.5" opacity="0.9"/>
  <line x1="526" y1="193" x2="556" y2="193" stroke="#d4a94c" stroke-width="1.2" opacity="0.8"/>
  <line x1="523" y1="218" x2="559" y2="218" stroke="#d4a94c" stroke-width="1.2" opacity="0.8"/>
  <ellipse cx="541" cy="160" rx="10" ry="5" fill="#d4a94c" opacity="0.5"/>
  <ellipse cx="541" cy="210" rx="24" ry="56" fill="#c97820" opacity="0.14"/>
  <!-- VU Meter -->
  <rect x="630" y="314" width="62" height="42" rx="2" fill="#111" stroke="#444" stroke-width="1"/>
  <path d="M636 354 Q661 318 686 354" stroke="#d4a94c" stroke-width="2" fill="none"/>
  <line x1="661" y1="354" x2="655" y2="326" stroke="#d4a94c" stroke-width="1.5" opacity="0.9"/>
  <!-- Knobs -->
  <circle cx="130" cy="330" r="16" fill="#2a2a2a" stroke="#555" stroke-width="1.5"/>
  <line x1="130" y1="330" x2="130" y2="316" stroke="#d4a94c" stroke-width="2"/>
  <circle cx="200" cy="330" r="16" fill="#2a2a2a" stroke="#555" stroke-width="1.5"/>
  <line x1="200" y1="330" x2="207" y2="317" stroke="#d4a94c" stroke-width="2"/>
  <circle cx="270" cy="330" r="16" fill="#2a2a2a" stroke="#555" stroke-width="1.5"/>
  <line x1="270" y1="330" x2="270" y2="316" stroke="#d4a94c" stroke-width="2"/>
  <circle cx="660" cy="355" r="5" fill="#d4a94c"/>
  <circle cx="660" cy="355" r="10" fill="#d4a94c" opacity="0.2"/>
</svg>
