<svg width="800" height="450" viewBox="0 0 800 450" fill="none" xmlns="http://www.w3.org/2000/svg">
  <rect width="800" height="450" fill="#0d0d0d"/>
  <!-- Outer glow -->
  <circle cx="400" cy="225" r="195" fill="#c9a84c" opacity="0.04"/>
  <!-- Record body -->
  <circle cx="400" cy="225" r="190" fill="#111111"/>
  <circle cx="400" cy="225" r="190" stroke="#1e1e1e" stroke-width="1.5"/>
  <!-- Groove rings - many concentric circles to simulate grooves -->
  <circle cx="400" cy="225" r="185" stroke="#1a1a1a" stroke-width="0.8"/>
  <circle cx="400" cy="225" r="178" stroke="#1c1c1c" stroke-width="0.8"/>
  <circle cx="400" cy="225" r="171" stroke="#1a1a1a" stroke-width="0.8"/>
  <circle cx="400" cy="225" r="164" stroke="#1c1c1c" stroke-width="0.8"/>
  <circle cx="400" cy="225" r="157" stroke="#1a1a1a" stroke-width="0.8"/>
  <circle cx="400" cy="225" r="150" stroke="#1c1c1c" stroke-width="0.8"/>
  <circle cx="400" cy="225" r="143" stroke="#1a1a1a" stroke-width="0.8"/>
  <circle cx="400" cy="225" r="136" stroke="#1c1c1c" stroke-width="0.8"/>
  <circle cx="400" cy="225" r="129" stroke="#1a1a1a" stroke-width="0.8"/>
  <circle cx="400" cy="225" r="122" stroke="#1c1c1c" stroke-width="0.8"/>
  <circle cx="400" cy="225" r="115" stroke="#1a1a1a" stroke-width="0.8"/>
  <circle cx="400" cy="225" r="108" stroke="#1c1c1c" stroke-width="0.8"/>
  <circle cx="400" cy="225" r="101" stroke="#1a1a1a" stroke-width="0.8"/>
  <circle cx="400" cy="225" r="94"  stroke="#1c1c1c" stroke-width="0.8"/>
  <circle cx="400" cy="225" r="87"  stroke="#1a1a1a" stroke-width="0.8"/>
  <circle cx="400" cy="225" r="80"  stroke="#1c1c1c" stroke-width="0.8"/>
  <!-- Label area -->
  <circle cx="400" cy="225" r="72" fill="#1a1208"/>
  <circle cx="400" cy="225" r="72" stroke="#c9a84c" stroke-width="1" opacity="0.5"/>
  <!-- Label text -->
  <text x="400" y="215" text-anchor="middle" font-family="Georgia, serif" font-size="11" fill="#c9a84c" letter-spacing="2" font-weight="700">DEEP GROOVE</text>
  <text x="400" y="232" text-anchor="middle" font-family="Georgia, serif" font-size="8" fill="#888" letter-spacing="1">HiFi Records</text>
  <line x1="370" y1="241" x2="430" y2="241" stroke="#c9a84c" stroke-width="0.5" opacity="0.4"/>
  <text x="400" y="252" text-anchor="middle" font-family="monospace" font-size="7" fill="#666" letter-spacing="0.5">33 1/3 RPM</text>
  <!-- Center spindle -->
  <circle cx="400" cy="225" r="5" fill="#c9a84c" opacity="0.7"/>
  <!-- Light reflection arc -->
  <path d="M 255 130 A 190 190 0 0 1 480 88" stroke="white" stroke-width="6" fill="none" opacity="0.04" stroke-linecap="round"/>
</svg>